<?xml version="1.0" encoding="UTF-8"?>
<svg id="Calque_1" data-name="Calque 1" xmlns="http://www.w3.org/2000/svg" viewBox="0 0 550.73 550.73">
  <defs>
    <style>
      .cls-1 {
        fill: #25292e;
        stroke-width: 0px;
      }
    </style>
  </defs>
  <path class="cls-1" d="M79.21,441.79c105.77,9.85,194.07-46.91,236.05-124.18,23.8-43.86,32.95-90.65,27.32-140.13-5.51-49.49-25.33-92.87-57.93-130.87,4.69,1.17,9.38,2.11,14.07,3.4,39.4,10.67,73.64,30.25,102.84,58.75,34.94,34.36,57.11,75.52,66.25,123.71,4.22,22.28,4.69,44.68,2.11,67.08-4.46,38.7-17.94,73.99-40.57,105.77-29.9,41.98-69.42,71.06-118.44,87.24-26.27,8.68-53.36,12.43-81.03,11.37-57.22-2.35-107.06-22.75-149.63-61.09-.23-.23-.47-.59-1.06-1.06Z"/>
</svg>