<?xml version="1.0" encoding="UTF-8"?>
<svg id="Calque_1" data-name="Calque 1" xmlns="http://www.w3.org/2000/svg" viewBox="0 0 48 48">
  <path d="m7.3,38.19c9.02.84,16.55-4,20.13-10.59,2.03-3.74,2.81-7.73,2.33-11.95-.47-4.22-2.16-7.92-4.94-11.16.4.1.8.18,1.2.29,3.36.91,6.28,2.58,8.77,5.01,2.98,2.93,4.87,6.44,5.65,10.55.36,1.9.4,3.81.18,5.72-.38,3.3-1.53,6.31-3.46,9.02-2.55,3.58-5.92,6.06-10.1,7.44-2.24.74-4.55,1.06-6.91.97-4.88-.2-9.13-1.94-12.76-5.21-.02-.02-.04-.05-.09-.09Z" style="fill: #25292e; stroke-width: 0px;"/>
</svg>