<?xml version="1.0" encoding="UTF-8"?>
<svg id="Calque_5" data-name="Calque 5" xmlns="http://www.w3.org/2000/svg" viewBox="0 0 799.72 800">
  <defs>
    <style>
      .cls-1 {
        fill: #8cc84b;
      }
    </style>
  </defs>
  <path class="cls-1" d="M433.36,8.53c-20.28-11.41-46.72-11.35-67.02,0C264.68,64.64,163.03,120.75,61.35,176.83c-19.78,10.41-33.13,31.65-32.92,53.71v338.97c-.14,22.48,13.89,43.93,34.18,54.2,29.2,15.54,57.58,32.65,87.31,47.15,34.34,16.88,77.31,20.61,112.08,3.01,28.22-14.59,40.75-47.03,40.72-76.84,.23-111.87,.04-223.74,.09-335.61,.67-4.97-3.06-10.29-8.49-10.17-12.99-.21-26-.12-38.99-.03-4.91-.46-9.7,3.61-9.33,8.55-.17,111.15,.03,222.33-.11,333.5,.28,15.38-10.11,30.15-24.92,35.35-34.23,12-131.92-51.43-131.92-51.43-3.59-1.66-5.86-5.55-5.51-9.41,0-111.83,.02-223.67,0-335.49-.49-4.51,2.29-8.57,6.43-10.41,101.32-55.77,202.59-111.68,303.92-167.49,3.52-2.35,8.43-2.34,11.94,.02,101.32,55.79,202.61,111.65,303.95,167.42,4.15,1.84,6.81,5.97,6.39,10.46-.02,111.82,.03,223.65-.03,335.47,.3,3.96-1.75,7.79-5.44,9.53-100.38,55.47-201.9,109.15-301.37,166.23-4.34,2.49-9.26,5.31-14.12,2.57-26.16-14.47-52-29.5-78.07-44.11-2.83-1.77-6.44-2.53-9.4-.55-11.69,6.16-22.68,11.15-36.11,16.46-18.85,7.46-15.84,10.51,1.16,20.42,30.49,17.25,61.03,34.44,91.52,51.71,20.07,12.53,47.04,13.42,67.76,1.84,101.67-56.03,203.32-112.13,305.01-168.16,20.24-10.32,34.34-31.69,34.2-54.19V230.54c.2-21.6-12.64-42.47-31.83-53.03-102.01-56.37-204.07-112.63-306.1-168.97Z"/>
  <path class="cls-1" d="M586.77,263.03c-39.91-21.35-87.38-22.49-131.73-19.69-32.04,3.17-65.73,12.01-89.07,34.97-23.94,23.09-29.15,60.37-17.78,90.5,8.15,21.3,28.66,35.15,49.87,42.47,27.32,9.65,56.02,12.63,84.73,15.61,26.18,2.72,52.37,5.44,77.54,13.22,10.28,3.41,22.25,8.62,25.4,19.8,2.91,13.25-.28,28.64-11.03,37.85-34.16,27.04-129.18,22.89-162.93,1.61-13.65-9.07-19.53-25.11-21.92-40.41-.27-4.77-4.1-9.14-9.28-8.77-12.96-.15-25.91-.12-38.87-.02-4.52-.38-9.22,2.84-9.47,7.45-2.66,70.05,61.67,100.59,122.03,107.31,34.48,3.29,69.72,3.1,103.68-4.3,25.53-5.81,51.12-16.51,68.69-36.17,21.67-23.89,25.93-59.47,16.21-89.23-7.43-22.21-28.66-36.45-50.36-43.78-29.51-10.12-64.49-15.56-91.22-18.11-38.85-3.7-85.03-2.19-96.02-27.72-4.39-13.37-.65-29.97,11.63-38.19,32.51-22.05,98.66-19.12,132.33-2.65,15.46,7.74,24.41,23.64,28.11,39.69,.69,4.71,3.86,9.63,9.31,9.43,12.87,.26,25.74,.07,38.6,.09,4.42,.31,9.26-2.19,10.12-6.71-.55-33.54-17.67-67.88-48.57-84.24Z"/>
</svg>