<?xml version="1.0" encoding="UTF-8"?>
<svg id="Calque_1" data-name="Calque 1" xmlns="http://www.w3.org/2000/svg" viewBox="0 0 550.73 550.73">
  <defs>
    <style>
      .cls-1 {
        fill: #fff;
        stroke-width: 0px;
      }
    </style>
  </defs>
  <path class="cls-1" d="M275.36,160.99c63.23,0,114.38,51.15,114.38,114.38s-51.15,114.38-114.38,114.38-114.38-51.15-114.38-114.38,51.15-114.38,114.38-114.38ZM275.36,354.55c43.76,0,79.18-35.43,79.18-79.18s-35.43-79.18-79.18-79.18-79.18,35.43-79.18,79.18,35.43,79.18,79.18,79.18ZM292.96,64.21v52.79c0,9.74-7.86,17.6-17.6,17.6s-17.6-7.86-17.6-17.6v-52.79c0-9.74,7.86-17.6,17.6-17.6s17.6,7.86,17.6,17.6ZM437.13,138.47c-2.23,2.23-35.08,35.08-37.3,37.3-6.92,6.92-18.07,6.92-24.87,0s-6.92-18.07,0-24.87c2.23-2.23,35.08-35.08,37.3-37.3,6.92-6.92,18.07-6.92,24.87,0,6.8,6.92,6.92,18.07,0,24.87ZM486.52,292.96h-52.79c-9.74,0-17.6-7.86-17.6-17.6s7.86-17.6,17.6-17.6h52.79c9.74,0,17.6,7.86,17.6,17.6s-7.86,17.6-17.6,17.6ZM412.26,437.13l-37.3-37.3c-6.92-6.92-6.92-18.07,0-24.87,6.92-6.8,18.07-6.92,24.87,0l37.3,37.3c6.92,6.92,6.92,18.07,0,24.87-6.92,6.8-18.07,6.92-24.87,0ZM257.77,486.52v-52.79c0-9.74,7.86-17.6,17.6-17.6s17.6,7.86,17.6,17.6v52.79c0,9.74-7.86,17.6-17.6,17.6s-17.6-7.86-17.6-17.6ZM113.6,412.26c2.23-2.23,35.08-35.08,37.3-37.3,6.92-6.92,18.07-6.92,24.87,0,6.92,6.92,6.92,18.07,0,24.87-2.23,2.23-35.08,35.08-37.3,37.3-6.92,6.92-18.07,6.92-24.87,0s-6.92-18.07,0-24.87ZM64.21,257.77h52.79c9.74,0,17.6,7.86,17.6,17.6s-7.86,17.6-17.6,17.6h-52.79c-9.74,0-17.6-7.86-17.6-17.6s7.86-17.6,17.6-17.6ZM138.47,113.6c2.23,2.23,35.08,35.08,37.3,37.3,6.92,6.92,6.92,18.07,0,24.87-6.92,6.92-18.07,6.92-24.87,0-2.23-2.23-35.08-35.08-37.3-37.3-6.92-6.92-6.92-18.07,0-24.87,6.92-6.8,18.07-6.92,24.87,0Z"/>
</svg>