<?xml version="1.0" encoding="UTF-8"?>
<svg id="Calque_1" data-name="Calque 1" xmlns="http://www.w3.org/2000/svg" viewBox="0 0 48 48">
  <path d="m24,14.25c5.39,0,9.75,4.36,9.75,9.75s-4.36,9.75-9.75,9.75-9.75-4.36-9.75-9.75,4.36-9.75,9.75-9.75Zm0,16.5c3.73,0,6.75-3.02,6.75-6.75s-3.02-6.75-6.75-6.75-6.75,3.02-6.75,6.75,3.02,6.75,6.75,6.75Zm1.5-24.75v4.5c0,.83-.67,1.5-1.5,1.5s-1.5-.67-1.5-1.5v-4.5c0-.83.67-1.5,1.5-1.5s1.5.67,1.5,1.5Zm12.29,6.33c-.19.19-2.99,2.99-3.18,3.18-.59.59-1.54.59-2.12,0s-.59-1.54,0-2.12c.19-.19,2.99-2.99,3.18-3.18.59-.59,1.54-.59,2.12,0s.59,1.54,0,2.12Zm4.21,13.17h-4.5c-.83,0-1.5-.67-1.5-1.5s.67-1.5,1.5-1.5h4.5c.83,0,1.5.67,1.5,1.5s-.67,1.5-1.5,1.5Zm-6.33,12.29l-3.18-3.18c-.59-.59-.59-1.54,0-2.12s1.54-.59,2.12,0l3.18,3.18c.59.59.59,1.54,0,2.12s-1.54.59-2.12,0Zm-13.17,4.21v-4.5c0-.83.67-1.5,1.5-1.5s1.5.67,1.5,1.5v4.5c0,.83-.67,1.5-1.5,1.5s-1.5-.67-1.5-1.5Zm-12.29-6.33c.19-.19,2.99-2.99,3.18-3.18.59-.59,1.54-.59,2.12,0,.59.59.59,1.54,0,2.12-.19.19-2.99,2.99-3.18,3.18-.59.59-1.54.59-2.12,0s-.59-1.54,0-2.12Zm-4.21-13.17h4.5c.83,0,1.5.67,1.5,1.5s-.67,1.5-1.5,1.5h-4.5c-.83,0-1.5-.67-1.5-1.5s.67-1.5,1.5-1.5Zm6.33-12.29c.19.19,2.99,2.99,3.18,3.18.59.59.59,1.54,0,2.12-.59.59-1.54.59-2.12,0-.19-.19-2.99-2.99-3.18-3.18-.59-.59-.59-1.54,0-2.12s1.54-.59,2.12,0Z" style="fill: #fff; stroke-width: 0px;"/>
</svg>