<?xml version="1.0" encoding="UTF-8"?>
<svg id="Calque_1" data-name="Calque 1" xmlns="http://www.w3.org/2000/svg" viewBox="0 0 550.73 550.73">
  <defs>
    <style>
      .cls-1 {
        fill: #25292e;
        stroke: #25292e;
        stroke-miterlimit: 10;
        stroke-width: 2px;
      }
    </style>
  </defs>
  <path class="cls-1" d="M261.93,274.76c-59.59-7.85-104.36-60.08-101.23-118.48,3.32-61.86,51.69-108.77,112.81-109.71,58.52-.91,108.52,43.58,114.71,101.87,6.52,61.34-36.9,117.85-101.75,125.85,10,.5,18.73.71,27.42,1.41,87.81,7.03,163.23,71.85,183.16,158.15,3.38,14.64,4.59,29.9,5.6,44.95,1.08,16.09-7.31,24.15-23.39,24.15-65.96.02-131.93,0-197.89,0-70.24,0-140.49-.03-210.73.05-6.46,0-12.45-.85-17.35-5.43-4.54-4.24-6.59-9.49-6.67-15.74-1.01-82.77,52.78-162.09,130.16-192.19,25.55-9.94,51.9-15.1,79.3-14.88,1.95.02,3.89,0,5.84,0ZM69.37,479.84h411.58c-1.53-11.76-2.29-23.16-4.57-34.26-16.88-82.37-85.01-141.9-169.26-147.35-27.01-1.75-54.3-2.8-81.12,1.6-58.34,9.58-102.71,40.35-132.57,91.42-15.86,27.13-23.42,56.74-24.06,88.58ZM183.6,160.85c.13,50.34,40.92,91.14,91.14,91.16,50.43.03,91.32-41.05,91.21-91.63-.1-50.61-41.02-91.25-91.68-91.07-50.26.18-90.81,41.11-90.68,91.53Z"/>
</svg>