<?xml version="1.0" encoding="UTF-8"?>
<svg id="Calque_1" data-name="Calque 1" xmlns="http://www.w3.org/2000/svg" viewBox="0 0 550.73 550.73">
  <defs>
    <style>
      .cls-1 {
        fill: #fff;
        stroke-width: 0px;
      }
    </style>
  </defs>
  <path class="cls-1" d="M324.36,46.69c0,26.67,0,52.52,0,78.38.01,31.65,20.69,52.28,52.4,52.29,25.51.01,51.03.03,76.54.05.32,0,.65.14,1.7.37v5.21c0,89.83.02,179.65,0,269.48,0,30.68-20.9,51.55-51.59,51.56-85.38.02-170.77.02-256.15,0-30.63,0-51.51-20.94-51.51-51.64-.02-118.07-.02-236.13,0-354.2,0-30.6,20.97-51.48,51.66-51.49,57.15-.02,114.3,0,171.45,0,1.66,0,3.32,0,5.51,0ZM226.08,340.69c16.31,0,32.62.09,48.94-.03,9.57-.07,16.5-6.86,16.63-16.33.16-11.55.26-23.12-.06-34.67-.64-22.77-17.69-43.15-40.3-45.78-15.58-1.82-31.66-2.12-47.25-.49-25.7,2.68-42.8,23.4-42.97,49.26-.06,10.03-.04,20.05,0,30.08.05,11.37,6.66,17.94,18.12,17.96,15.63.04,31.26,0,46.9,0ZM275.34,177.4c.03-27.01-21.99-49.09-48.92-49.04-27.06.05-48.92,21.88-49.03,48.94-.11,26.91,22,49.07,48.93,49.03,27.08-.04,48.99-21.91,49.02-48.94ZM274.97,422.36c32.32,0,64.63.02,96.95-.01,8.05,0,14.03-3.79,16.61-10.35,4.39-11.16-3.82-22.28-16.6-22.29-41.84-.04-83.68-.02-125.52-.02-22.62,0-45.24.03-67.86-.02-7.58-.01-13.21,3.16-16.21,10.14-4.76,11.06,3.49,22.49,16.21,22.52,32.14.07,64.29.02,96.44.02ZM357.03,259.02c5.27,0,10.54.08,15.81-.02,9.58-.17,16.76-7.14,16.82-16.2.06-9.08-7.11-16.29-16.6-16.41-10.71-.13-21.42-.13-32.13,0-9.52.12-16.62,7.3-16.55,16.43.07,8.87,7.12,15.94,16.33,16.17,5.44.14,10.88.03,16.32.03ZM357.22,340.69c5.44,0,10.89.14,16.32-.03,9.16-.28,16.16-7.49,16.11-16.38-.04-8.87-7.1-16.06-16.28-16.2-10.88-.17-21.76-.16-32.64,0-9.26.13-16.27,7.19-16.36,16.1-.09,9.08,7.05,16.28,16.53,16.49,5.44.12,10.88.02,16.32.02Z"/>
  <path class="cls-1" d="M443.83,144.69c-1.16,0-2.62,0-4.09,0-21.42,0-42.85.02-64.27,0-11.88-.01-18.43-6.46-18.44-18.18-.03-22.94,0-45.88,0-68.82l1.5-1.27c28.36,29.34,56.72,58.69,85.31,88.27Z"/>
</svg>