<?xml version="1.0" encoding="UTF-8"?>
<svg id="Calque_1" data-name="Calque 1" xmlns="http://www.w3.org/2000/svg" viewBox="0 0 550.73 550.73">
  <defs>
    <style>
      .cls-1 {
        fill: #fff;
        stroke-width: 0px;
      }
    </style>
  </defs>
  <path class="cls-1" d="M271.07,46.65c-118.76,2.07-219.22,97.95-224.24,217.05-5.7,135.11,101.92,245.02,237.51,240.28,99.74-3.49,189.68-75.5,213.18-172.81,35.34-146.33-75.73-287.14-226.45-284.52h0ZM469.87,316.23c-17.29,83.92-91.4,150.86-177.23,157.33-124.4,9.38-224.75-90.93-215.39-215.39,7.23-96.17,90.04-175.75,186.08-181.1,130.95-7.31,233.09,110.32,206.54,239.17h0Z"/>
  <path class="cls-1" d="M437.64,190.53c-12.1-22.32-36.42-51.6-57.23-66.08-30.5-21.22-70.33-31.41-107.28-29.86-22.7.95-53.72,8.57-74.65,17.7-112.07,48.84-141.95,191.14-60.55,282.3,66.75,74.76,189.51,83.92,263.5,14.65,59.53-55.74,75.2-146.77,36.22-218.71h0ZM366.02,173.67c18.46-3.34,13.44,28.52-17.14,27.65-3.64-1.72,5.99-25.63,17.14-27.65h0ZM363.26,293.67c-7.28,1.25-15.61-8.36-7.19-9.95,9.75-1.85,14.85,8.64,7.19,9.95ZM298.56,370.53c2.31.03-5.92,11.63-6.64,11.61-2.94-.09,5.88-10.97,6.64-11.61ZM293.03,150.99c3.16-.8-6.6,20.17-7.74,22.67-2.1,0,6.55-22.37,7.74-22.67ZM288.05,371.09c-.31-1.6,1.13-12.36,1.66-12.72,3.09-2.09-.17,13.87-1.66,12.72ZM285.29,201.87c2,7.33.91,23.31-.83,17.42-.25-.84,1.12-14.74.83-17.42ZM252.66,126.11c10.01-1.77,17.5,14.1,16.87,24.61-1.21,20.04-19.31.34-21.57-6.64-1.66-5.12-2.5-16.7,4.7-17.97h0ZM218.93,137.72c8.3-1.93,17.14,12.07,14.65,25.71-1.82,10-5.28,12.3-12.72,4.98-11-10.83-9.2-29-1.94-30.69ZM188.51,296.99c.65-.39,13.09.01,15.21.83-5.7.93-19.1,1.49-15.21-.83ZM181.32,343.99c-2.8-.33,12.16-18.32,12.72-21.01,4.55-1.97-11.42,21.17-12.72,21.01ZM181.88,172.56c11.12-.95,18.8,20.17,16.87,29.58-1.56,7.6-14.9-1.37-18.25-5.53-6.33-7.85-7.45-23.3,1.38-24.06h0ZM163.63,207.95c12.31-3.24,25.35,16.12,23.23,27.1-26.76,2.53-33.65-24.35-23.23-27.1h0ZM135.98,234.5c10.68-1.47,21.46,16.32,19.08,27.93-1.79,8.69-23.59-4.68-24.88-16.59-.45-4.1.71-10.63,5.81-11.34ZM135.42,369.43c-12.61-6.52-14.93-31.45-4.42-32.63,15.9-1.77,21.31,41.36,4.42,32.63ZM172.47,324.63c-25.21.52-31.47-26.2-21.01-28.76,11.81-2.89,25.64,18.03,21.01,28.76ZM174.13,259.38c.64-.09,10.52,4.79,11.34,6.36-.15,1.67-16.02-5.69-11.34-6.36ZM177.17,365.83c.92-7.87,13.04-18.23,20.74-19.08,1.18-.13,5.82-.38,6.36.83.99,28.09-29.34,37.46-27.1,18.25h0ZM213.4,249.43c7.25-2.38,18.69,7.94,9.95,9.95-8.7,2.01-15.6-8.1-9.95-9.95ZM224.18,323.81c-5.14,7.19-5.74.57,1.94-6.36,1.39.08-1.34,5.52-1.94,6.36ZM219.75,387.4c.58-4.01,6.88-16.06,9.68-16.31,3.77-.34,9.33,13.88,9.68,16.87,2.95,25.39-23.24,26.48-19.35-.55h0ZM234.96,202.42c3.31,5.71,12.9,19.21,14.65,22.95,6.72,14.32-12.42-13.48-14.65-22.95ZM252.66,356.71c1.31,1,1.68,3.29,1.94,4.7,2.81,15.29-2.83,18.14-1.94-4.7ZM256.25,189.98c-.45-1.93-2.8-16.76-1.94-16.87,2.8-.36,5.52,32.12,1.94,16.87ZM262.06,225.65c1.94-.16,4.93,11.3,3.87,12.17-2.75,2.24-7.24-11.88-3.87-12.17ZM273.67,360.58c-15.08-2.3-4.44-34.32,3.87-35.39,9.78-1.25,15.04,38.28-3.87,35.39ZM299.39,415.05c-5.17,15.13-24.47,4.51-18.25-18.8.42-1.57,4.53-9.87,5.81-10.23,4.83-1.37,17,15.68,12.44,29.03h0ZM302.98,326.29c1.29.19,3.77,5.81,4.15,6.91,4.37,12.83-2.33,6.17-4.15-6.91ZM310.72,168.14c-.43-9.61,8.01-29.11,18.8-29.86,15.63-1.08,9.4,32.29-18.8,29.86ZM326.76,196.34c-14.35,4.22-3.77-10.41,1.66-11.06,8.45-1,5.62,8.92-1.66,11.06ZM331.46,313.85c-.43,4.3-6.74-2.65-4.7-4.15,1.36-1,4.79,3.32,4.7,4.15ZM322.89,412.01c-14.65-2.81-9.68-34.84-2.21-35.39,10.37-.77,20.02,38.8,2.21,35.39ZM342.24,371.09c-1.37-2.51-10.9-19.05-10.78-20.18.02-.15.57-.49.83-.83,1.52,1.21,11.23,20.59,9.95,21.01ZM356.62,374.4c-11.26-6.93-10.72-29.43-6.08-30.97,4.88-1.62,15.66,8.43,17.97,14.65,4.17,11.25.03,23.65-11.89,16.31h0ZM361.32,258c1.12-1.52,10.7-5.83,11.34-5.81,5.35.24-11.53,7.82-11.34,5.81ZM374.87,237.82c-1.38-9.56,9.43-26.27,19.35-27.1,17.29-1.44,9.47,29.53-19.35,27.1h0ZM410.26,333.48c-10.57,4.65-25.88-13.1-22.67-28.76,22.49-.34,31.79,24.75,22.67,28.76ZM394.5,285.1c-.02-.32,2.19-1.32,2.49-1.38,8.6-1.73,9.89,4.85-2.49,1.38ZM395.33,271c-3.74-2.54,7.29-25.13,18.8-26.54,19.19-2.36,10.21,30.13-18.8,26.54Z"/>
</svg>