<?xml version="1.0" encoding="UTF-8"?>
<svg id="Calque_1" data-name="Calque 1" xmlns="http://www.w3.org/2000/svg" viewBox="0 0 550.73 550.73">
  <defs>
    <style>
      .cls-1 {
        fill: #fff;
        stroke-width: 0px;
      }
    </style>
  </defs>
  <path class="cls-1" d="M46.62,289.79c0-9.53,0-19.06,0-28.59.27-1.44.58-2.88.8-4.34,1.67-10.87,2.5-21.93,5.11-32.57,17.35-70.71,58.85-122.56,123.97-154.86,43.12-21.38,89.05-27.58,136.46-19.5,59.35,10.11,107.73,39.38,144.22,87.19,38.19,50.04,52.88,106.89,44.79,169.24-5.97,45.95-24.87,86.37-55.75,120.9-35.21,39.36-78.92,63.97-130.99,73.38-8.45,1.53-17.03,2.39-25.54,3.56h-28.59c-1.14-.25-2.27-.65-3.43-.74-46.21-3.69-87.67-19.75-123.86-48.63-45.4-36.24-73.48-83.08-83.74-140.38-1.46-8.17-2.3-16.44-3.43-24.67ZM260.85,187.65c-1.05-.11-1.91-.29-2.78-.29-21.72-.02-43.44.07-65.16-.1-3.17-.02-3.75,1.57-4.16,3.91-2.35,13.31-5.05,26.57-6.94,39.94-1.38,9.79-1.7,19.73-2.51,29.72h81.55v-73.18ZM189.69,363.29h71.06v-73.2h-81.21c.94,25.01,4.04,49.37,10.15,73.2ZM371.2,261.05c-.92-25.11-4.05-49.47-10.14-73.4h-71.1v73.4h81.24ZM289.86,363.37c1.01.11,1.73.25,2.45.25,21.87.01,43.74-.06,65.61.1,3.21.02,3.67-1.73,4.08-4,2.36-13.31,5.04-26.57,6.93-39.94,1.38-9.78,1.7-19.7,2.51-29.76h-81.57v73.34ZM391.67,187.34c3.14,24.86,6.22,49.22,9.3,73.61h73.83c-.13-2.31-.16-4.36-.38-6.4-2.08-18.71-6.5-36.84-13.64-54.28q-5.29-12.92-19.14-12.93h-49.97ZM391.69,363.46c-.11-.02.33.14.76.14,19.94.02,39.88.1,59.82-.11,1.47-.02,3.56-1.84,4.28-3.35,7.82-16.14,13.02-33.16,16.09-50.81,1.1-6.34,1.61-12.78,2.4-19.33h-74.05c-3.11,24.55-6.17,48.8-9.29,73.45ZM76.04,289.99c0,1.1-.03,1.84,0,2.57.07,1.34.12,2.68.27,4.01,2.47,22.03,8.23,43.13,17.55,63.28,1.32,2.84,2.82,3.9,5.99,3.87,18.6-.16,37.2-.07,55.8-.09,1.4,0,2.81-.17,4.11-.26-2.02-12.43-4.31-24.39-5.84-36.44-1.54-12.2-2.34-24.49-3.48-36.94h-74.41ZM74.86,260.95h74.87c3.14-24.69,6.23-49.02,9.35-73.6-20.1,0-40.62-.05-61.14.13-1.25.01-3.1,1.7-3.61,3.01-4.17,10.79-8.85,21.47-11.88,32.59-3.33,12.23-5.07,24.89-7.59,37.86ZM260.93,80.41c-34.42,15.58-49.02,45.92-62.49,77.99h62.49v-77.99ZM289.89,158.37h62.23c-10.15-25.79-22.12-49.71-43.89-67.12-5.34-4.27-11.65-7.34-18.34-11.48v78.6ZM260.83,470.8v-78.34h-62.59c3.84,8.49,7.13,16.57,11.07,24.32,8.9,17.52,19.8,33.58,36.09,45.17,4.63,3.29,9.88,5.7,15.42,8.85ZM289.9,392.47v77.18c21.92-4.57,56.58-47.97,61.6-77.18h-61.6ZM437.86,158.75c-24.11-32.6-53.94-55.6-90.64-70.03-.1.6-.18.77-.13.84,1.71,2.42,3.46,4.82,5.16,7.24,12.35,17.5,21.51,36.61,28.32,56.84,1.43,4.25,3.43,5.34,7.58,5.21,9.21-.29,18.44-.09,27.67-.09,6.96,0,13.92,0,22.03,0ZM113.09,158.51c2.43.11,3.98.23,5.54.23,14.58.02,29.16-.18,43.73.12,4.42.09,6.38-1.1,7.87-5.45,7.69-22.47,18-43.64,32.65-62.52.38-.48.6-1.09,1.34-2.47-37.45,14.82-67.31,37.77-91.13,70.08ZM112.89,392.23c24.12,32.59,53.94,55.58,90.83,70.09-.16-.86-.12-1.19-.26-1.38-15.37-19.83-26.07-42.09-34.12-65.71-.86-2.52-2.19-3.07-4.56-3.04-7.88.1-15.76.04-23.64.04-9.03,0-18.06,0-28.24,0ZM347.79,462.02c36.15-14.21,66.02-37.25,89.5-69.05-.81-.41-1.05-.65-1.3-.65-16.96-.04-33.92-.14-50.87.05-1.28.01-3.12,1.86-3.72,3.28-4.28,9.95-7.65,20.35-12.58,29.95-6.41,12.49-14,24.37-21.03,36.42Z"/>
</svg>