<?xml version="1.0" encoding="UTF-8"?>
<svg id="Calque_1" data-name="Calque 1" xmlns="http://www.w3.org/2000/svg" viewBox="0 0 550.73 550.73">
  <defs>
    <style>
      .cls-1 {
        fill: #fff;
        stroke-width: 0px;
      }
    </style>
  </defs>
  <path class="cls-1" d="M270.67,25.4C140.88,27.67,31.09,132.45,25.6,262.61c-6.23,147.66,111.39,267.78,259.57,262.59,109.01-3.81,207.3-82.52,232.98-188.86C556.77,176.42,435.39,22.53,270.67,25.4h0ZM487.94,320.02c-18.9,91.72-99.89,164.87-193.7,171.94-135.96,10.25-245.63-99.38-235.4-235.4,7.9-105.1,98.4-192.07,203.37-197.93,143.12-7.99,254.75,120.57,225.73,261.38h0Z"/>
  <path class="cls-1" d="M452.71,182.65c-13.22-24.39-39.8-56.39-62.55-72.22-33.33-23.19-76.87-34.33-117.24-32.63-24.81,1.04-58.71,9.37-81.59,19.34-122.48,53.38-155.14,208.9-66.18,308.52,72.95,81.7,207.12,91.72,287.98,16.02,65.06-60.92,82.19-160.4,39.58-239.02h0ZM374.44,164.22c20.18-3.65,14.68,31.17-18.74,30.22-3.97-1.88,6.55-28.01,18.74-30.22h0ZM371.42,295.37c-7.95,1.37-17.06-9.13-7.86-10.88,10.66-2.02,16.23,9.44,7.86,10.88ZM300.71,379.37c2.53.03-6.47,12.71-7.25,12.69-3.22-.09,6.43-11.99,7.25-12.69ZM294.67,139.44c3.46-.88-7.22,22.04-8.46,24.78-2.29,0,7.16-24.45,8.46-24.78ZM289.23,379.98c-.34-1.75,1.23-13.51,1.81-13.9,3.37-2.28-.18,15.16-1.81,13.9ZM286.21,195.04c2.19,8.01.99,25.47-.91,19.04-.27-.92,1.22-16.11.91-19.04ZM250.55,112.25c10.94-1.94,19.12,15.4,18.43,26.89-1.32,21.9-21.1.37-23.57-7.25-1.81-5.59-2.73-18.25,5.14-19.64h0ZM213.68,124.94c9.07-2.11,18.73,13.2,16.02,28.1-1.99,10.93-5.77,13.45-13.9,5.44-12.03-11.84-10.05-31.69-2.12-33.54ZM180.45,298.99c.71-.43,14.3.01,16.62.91-6.23,1.01-20.87,1.63-16.62-.91ZM172.59,350.36c-3.06-.36,13.29-20.02,13.9-22.97,4.98-2.15-12.48,23.13-13.9,22.97ZM173.19,163.01c12.15-1.04,20.55,22.05,18.43,32.33-1.71,8.31-16.28-1.5-19.94-6.04-6.92-8.58-8.15-25.46,1.51-26.29h0ZM153.25,201.69c13.46-3.54,27.71,17.62,25.38,29.61-29.25,2.77-36.78-26.62-25.38-29.61h0ZM123.03,230.7c11.67-1.61,23.46,17.83,20.85,30.52-1.95,9.5-25.78-5.12-27.2-18.13-.49-4.48.78-11.62,6.35-12.39ZM122.43,378.16c-13.78-7.13-16.32-34.38-4.84-35.66,17.37-1.94,23.29,45.2,4.84,35.66ZM162.92,329.21c-27.56.57-34.4-28.63-22.97-31.43,12.91-3.16,28.03,19.7,22.97,31.43ZM164.73,257.9c.7-.1,11.5,5.24,12.39,6.95-.17,1.82-17.51-6.22-12.39-6.95ZM168.05,374.24c1.01-8.6,14.25-19.92,22.66-20.85,1.29-.14,6.36-.42,6.95.91,1.09,30.7-32.07,40.94-29.61,19.94h0ZM207.64,247.02c7.93-2.6,20.43,8.68,10.88,10.88-9.5,2.19-17.05-8.85-10.88-10.88ZM219.42,328.31c-5.62,7.86-6.27.62,2.12-6.95,1.52.08-1.46,6.03-2.12,6.95ZM214.59,397.81c.63-4.38,7.52-17.55,10.58-17.83,4.12-.37,10.2,15.17,10.58,18.43,3.23,27.74-25.4,28.94-21.15-.61h0ZM231.21,195.65c3.62,6.24,14.1,20.99,16.02,25.08,7.34,15.65-13.57-14.73-16.02-25.08ZM250.55,364.26c1.43,1.09,1.83,3.6,2.12,5.14,3.07,16.71-3.1,19.82-2.12-5.14ZM254.48,182.05c-.49-2.1-3.05-18.31-2.12-18.43,3.06-.39,6.03,35.1,2.12,18.43ZM260.82,221.03c2.12-.18,5.39,12.35,4.23,13.3-3.01,2.45-7.91-12.99-4.23-13.3ZM273.52,368.49c-16.48-2.52-4.85-37.51,4.23-38.68,10.68-1.37,16.43,41.84-4.23,38.68ZM301.62,428.02c-5.64,16.54-26.74,4.93-19.94-20.55.46-1.72,4.95-10.79,6.35-11.18,5.28-1.49,18.57,17.14,13.6,31.73h0ZM305.55,331.02c1.41.21,4.12,6.35,4.53,7.55,4.77,14.02-2.55,6.74-4.53-7.55ZM314.01,158.18c-.47-10.51,8.75-31.82,20.55-32.63,17.08-1.19,10.27,35.29-20.55,32.63ZM331.53,189c-15.68,4.62-4.12-11.38,1.81-12.09,9.23-1.1,6.14,9.74-1.81,12.09ZM336.67,317.42c-.48,4.7-7.36-2.89-5.14-4.53,1.49-1.1,5.23,3.62,5.14,4.53ZM327.3,424.7c-16.01-3.07-10.58-38.07-2.42-38.68,11.33-.84,21.88,42.41,2.42,38.68ZM348.46,379.98c-1.5-2.75-11.91-20.82-11.79-22.06.02-.17.63-.54.91-.91,1.66,1.32,12.28,22.5,10.88,22.97ZM364.17,383.6c-12.3-7.57-11.71-32.17-6.65-33.84,5.34-1.77,17.12,9.21,19.64,16.02,4.56,12.29.03,25.85-12.99,17.83h0ZM369.31,256.39c1.22-1.66,11.69-6.38,12.39-6.35,5.85.26-12.6,8.54-12.39,6.35ZM384.11,234.33c-1.51-10.45,10.31-28.71,21.15-29.61,18.9-1.57,10.35,32.28-21.15,29.61h0ZM422.79,338.88c-11.55,5.08-28.29-14.32-24.78-31.43,24.58-.37,34.74,27.05,24.78,31.43ZM405.57,286c-.02-.35,2.4-1.45,2.72-1.51,9.4-1.89,10.81,5.3-2.72,1.51ZM406.47,270.59c-4.09-2.78,7.97-27.46,20.55-29.01,20.98-2.58,11.16,32.93-20.55,29.01Z"/>
</svg>